<?xml version="1.0" standalone="no"?>
<!DOCTYPE svg PUBLIC "-//W3C//DTD SVG 20010904//EN"
 "http://www.w3.org/TR/2001/REC-SVG-20010904/DTD/svg10.dtd">
<svg version="1.0" xmlns="http://www.w3.org/2000/svg"
 width="512.000000pt" height="512.000000pt" viewBox="0 0 512.000000 512.000000"
 preserveAspectRatio="xMidYMid meet">

<g transform="translate(0.000000,512.000000) scale(0.100000,-0.100000)"
fill="#000000" stroke="none">
<path fill="#303030" stroke="#303030" d="M3853 5110 c-12 -5 -28 -19 -36 -32 -8 -13 -119 -365 -246 -782 -127
-418 -234 -762 -236 -764 -3 -3 -62 0 -132 7 -761 68 -1562 12 -2120 -149
-402 -116 -631 -285 -609 -449 13 -92 97 -182 251 -266 39 -21 72 -40 74 -42
2 -1 -12 -27 -32 -56 -144 -218 -219 -536 -203 -867 22 -441 117 -686 351
-908 l95 -90 0 -151 0 -151 -52 0 c-40 0 -60 -6 -80 -23 -42 -35 -41 -81 2
-131 39 -44 114 -71 173 -62 89 14 97 34 97 250 0 97 2 176 4 176 3 0 37 -18
78 -39 244 -131 583 -220 983 -258 94 -8 176 -17 183 -19 9 -2 12 -35 12 -121
0 -134 8 -154 66 -173 96 -32 234 45 234 130 0 12 -13 35 -29 51 -25 24 -37
29 -80 29 l-51 0 0 40 c0 48 -4 47 185 54 369 13 782 105 1061 235 l84 40 0
-160 c0 -199 9 -221 97 -235 53 -8 131 17 166 54 77 81 41 162 -73 162 l-50 0
0 133 1 132 60 45 c189 140 332 352 389 576 114 445 54 986 -141 1271 -36 52
-36 61 -1 74 57 22 186 104 231 148 112 110 117 222 13 333 -130 139 -452 268
-860 345 -54 10 -91 21 -89 27 30 81 449 1480 450 1502 1 51 -25 79 -94 103
-68 23 -92 25 -126 11z m-983 -1670 c174 -9 394 -28 417 -35 9 -3 9 -13 1 -39
-9 -27 -17 -36 -33 -36 -12 0 -50 -14 -84 -31 -102 -51 -171 -160 -171 -271
l0 -38 308 2 307 3 -3 55 c-4 55 -30 131 -57 160 -13 15 -12 24 6 81 12 35 23
65 24 67 6 7 260 -57 363 -92 191 -65 343 -172 358 -250 11 -61 -10 -108 -72
-165 -218 -200 -884 -331 -1674 -331 -784 0 -1452 131 -1670 327 -137 123 -96
239 124 352 343 175 1147 280 1856 241z"/>
<path fill="#303030" stroke="#303030" d="M2282 3290 c-41 -25 -72 -76 -72 -117 l0 -33 155 0 155 0 0 25 c0 40
-36 101 -73 124 -45 28 -120 28 -165 1z"/>
<path fill="#303030" stroke="#303030" d="M1821 2929 c-71 -28 -124 -99 -136 -181 l-7 -48 222 0 223 0 -6 45
c-12 85 -59 150 -129 180 -41 17 -130 19 -167 4z"/>
</g>
</svg>
